<svg width="25" height="25" viewBox="0 0 25 25" fill="none" xmlns="http://www.w3.org/2000/svg">
<path d="M23.0648 2.71973C23.0648 1.22007 21.8448 0 20.3451 0C16.737 0.149414 16.738 5.29063 20.3451 5.43945C21.8448 5.43945 23.0648 4.21939 23.0648 2.71973Z" fill="#2E3591"/>
<path d="M20.3451 5.43945C17.7784 5.43945 15.6902 7.52769 15.6902 10.0944V10.931C15.6902 11.3354 16.0181 11.6634 16.4226 11.6634H24.2676C24.6721 11.6634 25 11.3354 25 10.931V10.0944C25 7.52769 22.9119 5.43945 20.3451 5.43945Z" fill="#2E3591"/>
<path d="M7.37465 16.0562C7.37465 14.5565 6.15458 13.3364 4.65492 13.3364C1.04681 13.4858 1.04783 18.627 4.65492 18.7759C6.15462 18.7759 7.37465 17.5558 7.37465 16.0562Z" fill="#2E3591"/>
<path d="M4.65493 18.7759C2.08823 18.7759 0 20.8641 0 23.4309V24.2674C0 24.6719 0.32793 24.9999 0.732422 24.9999H8.57749C8.98198 24.9999 9.30991 24.6719 9.30991 24.2674V23.4309C9.30991 20.8641 7.22168 18.7759 4.65493 18.7759Z" fill="#2E3591"/>
<path d="M13.0179 1.78355L11.4489 0.214508C11.163 -0.0714782 10.6992 -0.0715271 10.4131 0.214508C10.1271 0.500543 10.1271 0.964263 10.4131 1.2503L10.7343 1.57149C5.6626 1.67662 1.56909 5.83453 1.56909 10.931C1.56909 11.3355 1.89702 11.6634 2.30151 11.6634C2.70601 11.6634 3.03394 11.3355 3.03394 10.931C3.03394 6.64395 6.46768 3.14385 10.7293 3.03643L10.4131 3.35254C10.1271 3.63853 10.1271 4.1023 10.4131 4.38833C10.6992 4.67447 11.163 4.67427 11.4489 4.38833L13.018 2.81929C13.304 2.53331 13.3038 2.06929 13.0179 1.78355Z" fill="#2E3591"/>
<path d="M22.6985 13.3364C22.294 13.3364 21.966 13.6644 21.966 14.0688C21.966 18.3559 18.5323 21.856 14.2707 21.9635L14.5868 21.6473C14.8729 21.3614 14.8729 20.8976 14.5868 20.6115C14.3009 20.3255 13.8371 20.3256 13.5511 20.6115L11.982 22.1806C11.696 22.4666 11.6962 22.9306 11.982 23.2164L13.5511 24.7854C13.8371 25.0715 14.3009 25.0714 14.5868 24.7854C14.8729 24.4994 14.8729 24.0357 14.5868 23.7496L14.2657 23.4284C19.3373 23.3233 23.4309 19.1654 23.4309 14.0689C23.4309 13.6644 23.103 13.3364 22.6985 13.3364Z" fill="#2E3591"/>
</svg>
