<svg width="24" height="20" viewBox="0 0 24 20" fill="none" xmlns="http://www.w3.org/2000/svg">
<path d="M20.1739 10.7979H18.3506C18.5364 11.3067 18.638 11.8558 18.638 12.4282V19.3194C18.638 19.5581 18.5964 19.7871 18.5209 20.0001H21.5353C22.6613 20.0001 23.5774 19.084 23.5774 17.958V14.2013C23.5774 12.3247 22.0506 10.7979 20.1739 10.7979Z" fill="#2E3591"/>
<path d="M4.93946 12.4282C4.93946 11.8558 5.041 11.3067 5.22686 10.7979H3.40349C1.52681 10.7979 0 12.3247 0 14.2013V17.9581C0 19.0841 0.916056 20.0002 2.0421 20.0002H5.05657C4.981 19.7871 4.93946 19.5581 4.93946 19.3194V12.4282Z" fill="#2E3591"/>
<path d="M13.8727 9.02441H9.70428C7.82759 9.02441 6.30078 10.5512 6.30078 12.4279V19.3192C6.30078 19.6951 6.60553 19.9999 6.98148 19.9999H16.5955C16.9715 19.9999 17.2762 19.6951 17.2762 19.3192V12.4279C17.2762 10.5512 15.7494 9.02441 13.8727 9.02441Z" fill="#2E3591"/>
<path d="M11.7884 0C9.53148 0 7.69531 1.83616 7.69531 4.09317C7.69531 5.62408 8.54027 6.96111 9.78811 7.66309C10.38 7.99602 11.0623 8.1863 11.7884 8.1863C12.5145 8.1863 13.1969 7.99602 13.7888 7.66309C15.0367 6.96111 15.8816 5.62403 15.8816 4.09317C15.8816 1.83621 14.0454 0 11.7884 0Z" fill="#2E3591"/>
<path d="M4.60116 3.81494C2.91323 3.81494 1.54004 5.18813 1.54004 6.87606C1.54004 8.56399 2.91323 9.93718 4.60116 9.93718C5.02932 9.93718 5.43704 9.84849 5.80742 9.68906C6.44777 9.41337 6.97577 8.92534 7.30249 8.31404C7.53182 7.885 7.66228 7.39554 7.66228 6.87606C7.66228 5.18817 6.28909 3.81494 4.60116 3.81494Z" fill="#2E3591"/>
<path d="M18.9762 3.81494C17.2882 3.81494 15.915 5.18813 15.915 6.87606C15.915 7.39559 16.0455 7.88504 16.2748 8.31404C16.6015 8.92539 17.1295 9.41341 17.7699 9.68906C18.1403 9.84849 18.548 9.93718 18.9762 9.93718C20.6641 9.93718 22.0373 8.56399 22.0373 6.87606C22.0373 5.18813 20.6641 3.81494 18.9762 3.81494Z" fill="#2E3591"/>
</svg>
