<svg width="45" height="45" viewBox="0 0 45 45" fill="none" xmlns="http://www.w3.org/2000/svg">
<circle cx="22.5" cy="22.5" r="22.5" fill="#2E3591"/>
<path d="M14.1875 23H21.0625C21.5803 23 22 23.4197 22 23.9375V30.8125C22 31.3303 21.5803 31.75 21.0625 31.75H14.1875C13.6697 31.75 13.25 31.3303 13.25 30.8125V23.9375C13.25 23.4197 13.6697 23 14.1875 23Z" fill="white"/>
<path d="M24.1875 23H31.0625C31.5803 23 32 23.4197 32 23.9375V30.8125C32 31.3303 31.5803 31.75 31.0625 31.75H24.1875C23.6697 31.75 23.25 31.3303 23.25 30.8125V23.9375C23.25 23.4197 23.6697 23 24.1875 23Z" fill="white"/>
<path d="M14.1875 13H21.0625C21.5803 13 22 13.4197 22 13.9375V20.8125C22 21.3303 21.5803 21.75 21.0625 21.75H14.1875C13.6697 21.75 13.25 21.3303 13.25 20.8125V13.9375C13.25 13.4197 13.6697 13 14.1875 13Z" fill="white"/>
<path d="M24.1875 13H31.0625C31.5803 13 32 13.4197 32 13.9375V20.8125C32 21.3303 31.5803 21.75 31.0625 21.75H24.1875C23.6697 21.75 23.25 21.3303 23.25 20.8125V13.9375C23.25 13.4197 23.6697 13 24.1875 13Z" fill="white"/>
</svg>
