<svg width="47" height="54" viewBox="0 0 47 54" fill="none" xmlns="http://www.w3.org/2000/svg">
<path d="M17.92 43.008C18.599 43.008 19.2501 42.7248 19.7302 42.2207C20.2103 41.7166 20.48 41.0329 20.48 40.32V24.192C20.48 23.4791 20.2103 22.7954 19.7302 22.2913C19.2501 21.7872 18.599 21.504 17.92 21.504C17.241 21.504 16.5899 21.7872 16.1098 22.2913C15.6297 22.7954 15.36 23.4791 15.36 24.192V40.32C15.36 41.0329 15.6297 41.7166 16.1098 42.2207C16.5899 42.7248 17.241 43.008 17.92 43.008ZM43.52 10.752H33.28V8.064C33.28 5.92529 32.4709 3.87418 31.0306 2.36189C29.5903 0.849598 27.6369 0 25.6 0H20.48C18.4431 0 16.4897 0.849598 15.0494 2.36189C13.6091 3.87418 12.8 5.92529 12.8 8.064V10.752H2.56C1.88105 10.752 1.2299 11.0352 0.749807 11.5393C0.269713 12.0434 0 12.7271 0 13.44C0 14.1529 0.269713 14.8366 0.749807 15.3407C1.2299 15.8448 1.88105 16.128 2.56 16.128H5.12V45.696C5.12 47.8347 5.92914 49.8858 7.36942 51.3981C8.8097 52.9104 10.7631 53.76 12.8 53.76H33.28C35.3169 53.76 37.2703 52.9104 38.7106 51.3981C40.1509 49.8858 40.96 47.8347 40.96 45.696V16.128H43.52C44.199 16.128 44.8501 15.8448 45.3302 15.3407C45.8103 14.8366 46.08 14.1529 46.08 13.44C46.08 12.7271 45.8103 12.0434 45.3302 11.5393C44.8501 11.0352 44.199 10.752 43.52 10.752ZM17.92 8.064C17.92 7.3511 18.1897 6.6674 18.6698 6.1633C19.1499 5.6592 19.801 5.376 20.48 5.376H25.6C26.279 5.376 26.9301 5.6592 27.4102 6.1633C27.8903 6.6674 28.16 7.3511 28.16 8.064V10.752H17.92V8.064ZM35.84 45.696C35.84 46.4089 35.5703 47.0926 35.0902 47.5967C34.6101 48.1008 33.959 48.384 33.28 48.384H12.8C12.121 48.384 11.4699 48.1008 10.9898 47.5967C10.5097 47.0926 10.24 46.4089 10.24 45.696V16.128H35.84V45.696ZM28.16 43.008C28.839 43.008 29.4901 42.7248 29.9702 42.2207C30.4503 41.7166 30.72 41.0329 30.72 40.32V24.192C30.72 23.4791 30.4503 22.7954 29.9702 22.2913C29.4901 21.7872 28.839 21.504 28.16 21.504C27.481 21.504 26.8299 21.7872 26.3498 22.2913C25.8697 22.7954 25.6 23.4791 25.6 24.192V40.32C25.6 41.0329 25.8697 41.7166 26.3498 42.2207C26.8299 42.7248 27.481 43.008 28.16 43.008Z" fill="white"/>
</svg>
