<svg width="36" height="31" viewBox="0 0 36 31" fill="none" xmlns="http://www.w3.org/2000/svg">
<path d="M34.6924 21.375H32.4542V15.4375C32.4542 14.782 31.9528 14.25 31.3351 14.25H19.0249V9.5H21.2631C21.8808 9.5 22.3822 8.968 22.3822 8.3125V1.1875C22.3822 0.532 21.8808 0 21.2631 0H14.5484C13.9307 0 13.4293 0.532 13.4293 1.1875V8.3125C13.4293 8.968 13.9307 9.5 14.5484 9.5H16.7866V14.25H4.47644C3.85869 14.25 3.35733 14.782 3.35733 15.4375V21.375H1.11911C0.501361 21.375 0 21.907 0 22.5625V29.6875C0 30.343 0.501361 30.875 1.11911 30.875H7.83377C8.45152 30.875 8.95288 30.343 8.95288 29.6875V22.5625C8.95288 21.907 8.45152 21.375 7.83377 21.375H5.59555V16.625H16.7866V21.375H14.5484C13.9307 21.375 13.4293 21.907 13.4293 22.5625V29.6875C13.4293 30.343 13.9307 30.875 14.5484 30.875H21.2631C21.8808 30.875 22.3822 30.343 22.3822 29.6875V22.5625C22.3822 21.907 21.8808 21.375 21.2631 21.375H19.0249V16.625H30.216V21.375H27.9777C27.36 21.375 26.8586 21.907 26.8586 22.5625V29.6875C26.8586 30.343 27.36 30.875 27.9777 30.875H34.6924C35.3102 30.875 35.8115 30.343 35.8115 29.6875V22.5625C35.8115 21.907 35.3102 21.375 34.6924 21.375Z" fill="white"/>
</svg>
