<svg width="32" height="32" viewBox="0 0 32 32" fill="none" xmlns="http://www.w3.org/2000/svg">
<path d="M7.5625 15.625L15.0625 18.125L7.5625 20.625L0.0625 18.125L7.5625 15.625Z" fill="white"/>
<path d="M31.9375 18.125L24.4375 20.625L16.9375 18.125L24.4375 15.625L31.9375 18.125Z" fill="white"/>
<path d="M15.7036 0.0480937C15.896 -0.0160312 16.1041 -0.0160312 16.2965 0.0480937L23.5 2.44928L16 4.94928L8.5 2.44928L15.7036 0.0480937Z" fill="white"/>
<path d="M23.5 32.0001L16.9375 29.8126V20.1016L23.5 22.2891V32.0001Z" fill="white"/>
<path d="M31.9375 29.1369C31.9375 29.5405 31.6793 29.8988 31.2964 30.0263L25.375 32.0001V22.2891L31.9375 20.1016V29.1369Z" fill="white"/>
<path d="M15.0625 29.8126L8.5 32.0001V22.2891L15.0625 20.1016V29.8126Z" fill="white"/>
<path d="M6.625 32.0001L0.703562 30.0263C0.320749 29.8987 0.0625 29.5404 0.0625 29.1369V20.1016L6.625 22.2891V32.0001Z" fill="white"/>
<path d="M23.5 14.3126L16.9375 16.5001V6.61334L23.5 4.42578V14.3126Z" fill="white"/>
<path d="M8.5 14.3126V4.42578L15.0625 6.61334V16.5001L8.5 14.3126Z" fill="white"/>
</svg>
