<svg width="24" height="20" viewBox="0 0 24 20" fill="none" xmlns="http://www.w3.org/2000/svg">
<path d="M21.2499 2.00006H15.9999V1.74993C15.9999 0.784971 15.2149 0 14.25 0H9.74997C8.78501 0 8.00004 0.784971 8.00004 1.74993V2.00006H2.75005C1.23303 2.00006 0 3.2329 0 4.74992V17.2499C0 18.767 1.23303 20 2.75005 20H21.2499C22.7669 20 23.9999 18.767 23.9999 17.2499V4.74992C23.9999 3.2329 22.7669 2.00006 21.2499 2.00006ZM14.0009 3.99993H9.99991V2.00006H14L14.0009 3.99993ZM7.49998 6.99992C8.87803 6.99992 9.99991 8.12198 9.99991 9.50003C9.99991 10.8779 8.87803 12 7.49998 12C6.12193 12 5.00005 10.8779 5.00005 9.50003C5.00005 8.12198 6.12193 6.99992 7.49998 6.99992ZM12 16.25C12 16.664 11.664 17 11.25 17H3.74999C3.33599 17 2.99999 16.664 2.99999 16.25V15.75C2.99999 14.2329 4.23302 12.9999 5.75004 12.9999H9.24991C10.7669 12.9999 12 14.2329 12 15.75V16.25ZM20.2499 17H14.75C14.336 17 14 16.664 14 16.25C14 15.836 14.336 15.5 14.75 15.5H20.2499C20.6639 15.5 20.9999 15.836 20.9999 16.25C20.9999 16.664 20.6639 17 20.2499 17ZM20.2499 12.9999H14.75C14.336 12.9999 14 12.6639 14 12.2499C14 11.8359 14.336 11.4999 14.75 11.4999H20.2499C20.6639 11.4999 20.9999 11.8359 20.9999 12.2499C20.9999 12.6639 20.6639 12.9999 20.2499 12.9999ZM20.2499 8.99997H14.75C14.336 8.99997 14 8.66398 14 8.24998C14 7.83597 14.336 7.49998 14.75 7.49998H20.2499C20.6639 7.49998 20.9999 7.83597 20.9999 8.24998C20.9999 8.66398 20.6639 8.99997 20.2499 8.99997Z" fill="#2E3591"/>
</svg>
