<svg width="28" height="28" viewBox="0 0 28 28" fill="none" xmlns="http://www.w3.org/2000/svg">
<path d="M25.4694 11.5061C25.0537 11.1996 24.5301 10.8169 24.4667 10.5668C24.4933 10.0827 24.6316 9.61139 24.8706 9.1896C25.2369 8.34894 25.6149 7.47779 25.1946 6.75336C24.7743 6.02893 23.8186 5.91154 22.8993 5.81408C22.4228 5.81088 21.9533 5.69883 21.5268 5.48651C21.3141 5.05844 21.2024 4.58729 21.2003 4.10931C21.097 3.19 20.9902 2.23899 20.2611 1.81396C19.532 1.38892 18.6596 1.76112 17.819 2.13212C17.3968 2.37102 16.9251 2.50922 16.4406 2.53602C16.187 2.46794 15.8055 1.94896 15.5014 1.53333C14.9683 0.814795 14.3683 0 13.5019 0C12.6354 0 12.0355 0.814795 11.5059 1.53333C11.1983 1.95011 10.8167 2.47262 10.5666 2.53717C10.0827 2.50801 9.61144 2.36998 9.18828 2.13327C8.34294 1.76107 7.47179 1.39008 6.74972 1.80807C6.02766 2.22606 5.90675 3.18411 5.8034 4.10925C5.80004 4.58558 5.68843 5.05492 5.47698 5.48177C5.05123 5.69107 4.5836 5.80103 4.1092 5.80345C3.18873 5.90675 2.23652 6.01363 1.81269 6.74274C1.38887 7.47184 1.76112 8.3431 2.13211 9.18492C2.3719 9.60809 2.51015 10.0811 2.53602 10.5668C2.46794 10.8204 1.94896 11.2032 1.53333 11.5061C0.814795 12.0344 0 12.6356 0 13.502C0 14.3685 0.814795 14.9697 1.53454 15.498C1.95017 15.8044 2.47383 16.1872 2.53723 16.4373C2.51059 16.9214 2.37234 17.3927 2.13333 17.8145C1.76701 18.6551 1.38898 19.5263 1.80928 20.2507C2.22958 20.9752 3.18532 21.0925 4.10463 21.19C4.58112 21.1932 5.05057 21.3053 5.47715 21.5176C5.6898 21.9456 5.80147 22.4168 5.80356 22.8948C5.90686 23.8141 6.01374 24.7651 6.74285 25.1901C7.47195 25.6152 8.33727 25.2324 9.17908 24.8661C9.60555 24.6298 10.08 24.4933 10.5668 24.4669C10.8205 24.535 11.202 25.054 11.5061 25.4696C12.0356 26.1881 12.6356 27.0029 13.5021 27.0029C14.3686 27.0029 14.9685 26.1881 15.498 25.4696C15.8056 25.0528 16.1873 24.5303 16.4373 24.4658C16.9216 24.4932 17.3932 24.6313 17.8157 24.8697C18.6563 25.236 19.5275 25.6117 20.2507 25.1949C20.9739 24.7781 21.0937 23.8188 21.197 22.8984C21.2004 22.422 21.312 21.9527 21.5235 21.5258C21.95 21.3148 22.4189 21.2036 22.8948 21.2006C23.8152 21.0973 24.7674 20.9905 25.1913 20.2613C25.6151 19.5322 25.2324 18.6669 24.8672 17.8251C24.6282 17.3998 24.4916 16.9246 24.4681 16.4373C24.5361 16.1837 25.0551 15.801 25.4707 15.4981C26.1893 14.9686 27.0053 14.3674 27.0053 13.5021C27.0053 12.6368 26.1891 12.0344 25.4694 11.5061Z" fill="#FED42D"/>
<path d="M16.715 20.0575L16.4635 21.0856C15.709 21.3834 15.1063 21.6101 14.6574 21.7659C14.2082 21.9222 13.6861 22 13.0913 22C12.1779 22 11.4674 21.7762 10.9607 21.3318C10.454 20.8856 10.2006 20.3201 10.2006 19.6342C10.2006 19.3686 10.219 19.0955 10.2572 18.8172C10.2957 18.5386 10.3571 18.2249 10.4409 17.8741L11.3839 14.5367C11.4678 14.2171 11.5391 13.9143 11.5962 13.628C11.6541 13.3434 11.682 13.0815 11.682 12.8459C11.682 12.4196 11.5938 12.1215 11.4181 11.9539C11.2424 11.7868 10.9072 11.7019 10.4095 11.7019C10.1657 11.7019 9.91519 11.7409 9.65981 11.8164C9.40331 11.8923 9.18407 11.9655 9 12.0336L9.25215 11.0047C9.86986 10.7532 10.4603 10.5378 11.0251 10.3591C11.5899 10.1798 12.1235 10.0901 12.6283 10.0901C13.5354 10.0901 14.2354 10.3094 14.727 10.7478C15.2185 11.1866 15.4642 11.7555 15.4642 12.4564C15.4642 12.6014 15.4481 12.857 15.4134 13.2222C15.3795 13.5883 15.3165 13.9237 15.2245 14.2287L14.2856 17.5528C14.2086 17.8198 14.1394 18.125 14.0793 18.4685C14.0172 18.8097 13.9875 19.0704 13.9875 19.2452C13.9875 19.6866 14.0859 19.988 14.2832 20.1482C14.4819 20.3084 14.8243 20.3881 15.3105 20.3881C15.5388 20.3881 15.7985 20.3476 16.0871 20.268C16.3749 20.1885 16.5848 20.1186 16.715 20.0575ZM16.9531 6.10205C16.9531 6.6812 16.7348 7.17582 16.2962 7.58251C15.8587 7.99066 15.3315 8.1949 14.7147 8.1949C14.096 8.1949 13.5675 7.99066 13.125 7.58251C12.6833 7.17565 12.462 6.6812 12.462 6.10205C12.462 5.52402 12.6833 5.0286 13.125 4.61674C13.5667 4.20553 14.0962 4 14.7147 4C15.3313 4 15.8587 4.20601 16.2962 4.61674C16.7351 5.0286 16.9531 5.52418 16.9531 6.10205Z" fill="white"/>
</svg>
