<svg width="28" height="28" viewBox="0 0 28 28" fill="none" xmlns="http://www.w3.org/2000/svg">
<path d="M25.4694 11.5061C25.0537 11.1996 24.5301 10.8169 24.4667 10.5668C24.4933 10.0827 24.6316 9.61139 24.8706 9.1896C25.2369 8.34894 25.6149 7.47779 25.1946 6.75336C24.7743 6.02893 23.8186 5.91154 22.8993 5.81408C22.4228 5.81088 21.9533 5.69883 21.5268 5.48651C21.3141 5.05844 21.2024 4.58729 21.2003 4.10931C21.097 3.19 20.9902 2.23899 20.2611 1.81396C19.532 1.38892 18.6596 1.76112 17.819 2.13212C17.3968 2.37102 16.9251 2.50922 16.4406 2.53602C16.187 2.46794 15.8055 1.94896 15.5014 1.53333C14.9683 0.814795 14.3683 0 13.5019 0C12.6354 0 12.0355 0.814795 11.5059 1.53333C11.1983 1.95011 10.8167 2.47262 10.5666 2.53717C10.0827 2.50801 9.61144 2.36998 9.18828 2.13327C8.34294 1.76107 7.47179 1.39008 6.74972 1.80807C6.02766 2.22606 5.90675 3.18411 5.8034 4.10925C5.80004 4.58558 5.68843 5.05492 5.47698 5.48177C5.05123 5.69107 4.5836 5.80103 4.1092 5.80345C3.18873 5.90675 2.23652 6.01363 1.81269 6.74274C1.38887 7.47184 1.76112 8.3431 2.13211 9.18492C2.3719 9.60809 2.51015 10.0811 2.53602 10.5668C2.46794 10.8204 1.94896 11.2032 1.53333 11.5061C0.814795 12.0344 0 12.6356 0 13.502C0 14.3685 0.814795 14.9697 1.53454 15.498C1.95017 15.8044 2.47383 16.1872 2.53723 16.4373C2.51059 16.9214 2.37234 17.3927 2.13333 17.8145C1.76701 18.6551 1.38898 19.5263 1.80928 20.2507C2.22958 20.9752 3.18532 21.0925 4.10463 21.19C4.58112 21.1932 5.05057 21.3053 5.47715 21.5176C5.6898 21.9456 5.80147 22.4168 5.80356 22.8948C5.90686 23.8141 6.01374 24.7651 6.74285 25.1901C7.47195 25.6152 8.33727 25.2324 9.17908 24.8661C9.60555 24.6298 10.08 24.4933 10.5668 24.4669C10.8205 24.535 11.202 25.054 11.5061 25.4696C12.0356 26.1881 12.6356 27.0029 13.5021 27.0029C14.3686 27.0029 14.9685 26.1881 15.498 25.4696C15.8056 25.0528 16.1873 24.5303 16.4373 24.4658C16.9216 24.4932 17.3932 24.6313 17.8157 24.8697C18.6563 25.236 19.5275 25.6117 20.2507 25.1949C20.9739 24.7781 21.0937 23.8188 21.197 22.8984C21.2004 22.422 21.312 21.9527 21.5235 21.5258C21.95 21.3148 22.4189 21.2036 22.8948 21.2006C23.8152 21.0973 24.7674 20.9905 25.1913 20.2613C25.6151 19.5322 25.2324 18.6669 24.8672 17.8251C24.6282 17.3998 24.4916 16.9246 24.4681 16.4373C24.5361 16.1837 25.0551 15.801 25.4707 15.4981C26.1893 14.9686 27.0053 14.3674 27.0053 13.5021C27.0053 12.6368 26.1891 12.0344 25.4694 11.5061Z" fill="#8E8E8E"/>
<path d="M9.10931 16.871C8.92455 16.871 8.75053 16.784 8.63969 16.6362L6.17412 13.3488V16.284C6.17412 16.6082 5.91127 16.871 5.58706 16.871C5.26285 16.871 5 16.6082 5 16.284V11.5877C5 11.2635 5.26285 11.0006 5.58706 11.0006C5.77181 11.0006 5.94583 11.0876 6.05667 11.2354L8.52225 14.5229V11.5877C8.52225 11.2635 8.78509 11.0006 9.10931 11.0006C9.43352 11.0006 9.69637 11.2635 9.69637 11.5877V16.284C9.6962 16.5365 9.53445 16.7607 9.29483 16.8405C9.23506 16.8607 9.17243 16.871 9.10931 16.871Z" fill="#FAFAFA"/>
<path d="M13.8057 16.871H11.4575C11.1333 16.871 10.8705 16.6082 10.8705 16.284V11.5877C10.8705 11.2635 11.1333 11.0006 11.4575 11.0006H13.8057C14.1299 11.0006 14.3928 11.2635 14.3928 11.5877C14.3928 11.9119 14.1299 12.1747 13.8057 12.1747H12.0446V15.697H13.8057C14.1299 15.697 14.3928 15.9598 14.3928 16.284C14.3928 16.6082 14.1299 16.871 13.8057 16.871Z" fill="#FAFAFA"/>
<path d="M13.8057 14.5228H11.4575C11.1333 14.5228 10.8705 14.2599 10.8705 13.9357C10.8705 13.6115 11.1333 13.3486 11.4575 13.3486H13.8057C14.1299 13.3486 14.3928 13.6115 14.3928 13.9357C14.3928 14.2599 14.1299 14.5228 13.8057 14.5228Z" fill="#FAFAFA"/>
<path d="M19.676 16.8709C19.423 16.8713 19.1982 16.7095 19.1183 16.4694L18.5019 14.6179L17.8855 16.4694C17.8105 16.7227 17.569 16.8895 17.3055 16.8698C17.0448 16.8599 16.8219 16.6791 16.7584 16.426L15.5844 11.7297C15.5059 11.4149 15.6975 11.0961 16.0123 11.0176C16.3271 10.9391 16.6459 11.1307 16.7244 11.4455L17.4089 14.1858L17.9454 12.5762C18.0849 12.2685 18.4474 12.1322 18.7551 12.2717C18.8902 12.3329 18.9984 12.4411 19.0597 12.5762L19.5962 14.1858L20.2807 11.4455C20.3591 11.1307 20.6779 10.9391 20.9928 11.0176C21.3076 11.0961 21.4992 11.4148 21.4207 11.7297L20.2467 16.426C20.1832 16.6791 19.9602 16.8599 19.6995 16.8698L19.676 16.8709Z" fill="#FAFAFA"/>
</svg>
