<svg width="28" height="28" viewBox="0 0 28 28" fill="none" xmlns="http://www.w3.org/2000/svg">
<path d="M25.4694 11.5061C25.0537 11.1996 24.5301 10.8169 24.4667 10.5668C24.4933 10.0827 24.6316 9.61139 24.8706 9.1896C25.2369 8.34894 25.6149 7.47779 25.1946 6.75336C24.7743 6.02893 23.8186 5.91154 22.8993 5.81408C22.4228 5.81088 21.9533 5.69883 21.5268 5.48651C21.3141 5.05844 21.2024 4.58729 21.2003 4.10931C21.097 3.19 20.9902 2.23899 20.2611 1.81396C19.532 1.38892 18.6596 1.76112 17.819 2.13212C17.3968 2.37102 16.9251 2.50922 16.4406 2.53602C16.187 2.46794 15.8055 1.94896 15.5014 1.53333C14.9683 0.814795 14.3683 0 13.5019 0C12.6354 0 12.0355 0.814795 11.5059 1.53333C11.1983 1.95011 10.8167 2.47262 10.5666 2.53717C10.0827 2.50801 9.61144 2.36998 9.18828 2.13327C8.34294 1.76107 7.47179 1.39008 6.74972 1.80807C6.02766 2.22606 5.90675 3.18411 5.8034 4.10925C5.80004 4.58558 5.68843 5.05492 5.47698 5.48177C5.05123 5.69107 4.5836 5.80103 4.1092 5.80345C3.18873 5.90676 2.23652 6.01363 1.81269 6.74274C1.38887 7.47184 1.76112 8.34311 2.13211 9.18492C2.3719 9.60809 2.51015 10.0811 2.53602 10.5668C2.46794 10.8204 1.94896 11.2032 1.53333 11.5061C0.814795 12.0344 0 12.6356 0 13.502C0 14.3685 0.814795 14.9697 1.53454 15.498C1.95017 15.8044 2.47383 16.1872 2.53723 16.4373C2.51059 16.9214 2.37234 17.3927 2.13333 17.8145C1.76701 18.6551 1.38898 19.5263 1.80928 20.2507C2.22958 20.9752 3.18532 21.0925 4.10463 21.19C4.58112 21.1932 5.05057 21.3053 5.47715 21.5176C5.6898 21.9456 5.80147 22.4168 5.80356 22.8948C5.90686 23.8141 6.01374 24.7651 6.74285 25.1901C7.47195 25.6152 8.33727 25.2324 9.17908 24.8661C9.60555 24.6298 10.08 24.4933 10.5668 24.4669C10.8205 24.535 11.202 25.054 11.5061 25.4696C12.0356 26.1881 12.6356 27.0029 13.5021 27.0029C14.3686 27.0029 14.9685 26.1881 15.498 25.4696C15.8056 25.0528 16.1873 24.5303 16.4373 24.4658C16.9216 24.4932 17.3932 24.6313 17.8157 24.8697C18.6563 25.236 19.5275 25.6117 20.2507 25.1949C20.9739 24.7781 21.0937 23.8188 21.197 22.8984C21.2004 22.422 21.312 21.9527 21.5235 21.5258C21.95 21.3148 22.4189 21.2036 22.8948 21.2006C23.8152 21.0973 24.7674 20.9905 25.1913 20.2613C25.6151 19.5322 25.2324 18.6669 24.8672 17.8251C24.6282 17.3998 24.4916 16.9246 24.4681 16.4373C24.5361 16.1837 25.0551 15.801 25.4707 15.4981C26.1893 14.9686 27.0053 14.3674 27.0053 13.5021C27.0053 12.6368 26.1891 12.0344 25.4694 11.5061Z" fill="#2E3591"/>
<path d="M20.2629 8.2957C20.1664 8.202 20.0515 8.12763 19.9249 8.07688C19.7984 8.02613 19.6626 8 19.5255 8C19.3884 8 19.2526 8.02613 19.126 8.07688C18.9995 8.12763 18.8846 8.202 18.788 8.2957L11.0499 15.7532L7.7989 12.6142C7.69864 12.521 7.5803 12.4477 7.45061 12.3986C7.32093 12.3494 7.18245 12.3252 7.04308 12.3276C6.90371 12.3299 6.76618 12.3586 6.63834 12.4121C6.5105 12.4656 6.39486 12.5427 6.29802 12.6392C6.20117 12.7357 6.12502 12.8496 6.07392 12.9744C6.02281 13.0992 5.99775 13.2325 6.00016 13.3667C6.00257 13.5008 6.03241 13.6332 6.08797 13.7562C6.14353 13.8792 6.22373 13.9905 6.32398 14.0837L10.3125 17.9224C10.409 18.0161 10.5239 18.0905 10.6505 18.1413C10.7771 18.192 10.9128 18.2181 11.0499 18.2181C11.1871 18.2181 11.3228 18.192 11.4494 18.1413C11.576 18.0905 11.6908 18.0161 11.7874 17.9224L20.2629 9.7652C20.3684 9.67159 20.4525 9.55798 20.5101 9.43152C20.5676 9.30506 20.5973 9.1685 20.5973 9.03045C20.5973 8.89239 20.5676 8.75584 20.5101 8.62938C20.4525 8.50292 20.3684 8.38931 20.2629 8.2957Z" fill="white"/>
</svg>
