<svg width="30" height="30" viewBox="0 0 30 30" fill="none" xmlns="http://www.w3.org/2000/svg">
<rect width="30" height="30" rx="5" fill="#FCBF29"/>
<path d="M12.9465 18.3823L12.1778 21.0726C12.1132 21.2983 12.1512 21.5407 12.2813 21.7357C12.4296 21.9581 12.6792 22.0918 12.9465 22.0918C13.2139 22.0918 13.4636 21.9581 13.6119 21.7357C13.7419 21.5407 13.7797 21.2983 13.7153 21.0726L12.9465 18.3823Z" fill="white"/>
<path d="M16.271 8.14997L18.4744 6.42505C18.6586 6.28015 18.7699 6.06175 18.779 5.82763C18.7903 5.56036 18.6671 5.30499 18.4506 5.14756C18.2343 4.99013 17.9534 4.95146 17.7025 5.04452C17.4826 5.1261 17.3097 5.29989 17.2292 5.52021L16.271 8.14997Z" fill="white"/>
<path d="M9.62183 8.14961L8.66238 5.52112C8.58186 5.3008 8.40871 5.12702 8.18903 5.04543C7.93813 4.95238 7.65726 4.99126 7.44077 5.14869C7.22449 5.30612 7.10127 5.56127 7.11253 5.82875C7.12166 6.06288 7.23299 6.28107 7.41697 6.42618L9.62183 8.14961Z" fill="white"/>
<path d="M7.56689 14.4736L4.77077 14.5741C4.53622 14.5828 4.31718 14.6942 4.17208 14.8788C4.00658 15.0885 3.95665 15.3672 4.03929 15.6213C4.12194 15.8756 4.32611 16.0717 4.58339 16.1442C4.80923 16.2073 5.05143 16.1684 5.24603 16.0375L7.56689 14.4736Z" fill="white"/>
<path d="M25.5644 17.5121C25.4569 17.5121 25.3532 17.4723 25.2734 17.4003L23.851 16.1198C22.0228 14.4684 19.7217 13.4334 17.2732 13.161H16.4272C16.1869 13.161 15.9921 12.9664 15.9921 12.7259C15.9921 12.4856 16.1869 12.2908 16.4272 12.2908H17.2974C17.3135 12.2908 17.3295 12.2918 17.3454 12.2935C19.9837 12.5816 22.4639 13.6942 24.4333 15.4733L25.8561 16.7538C25.99 16.8743 26.0356 17.0651 25.9708 17.2331C25.9063 17.4014 25.7446 17.5123 25.5644 17.5121Z" fill="white"/>
<path d="M25.5645 22.7332C25.4491 22.7332 25.3384 22.6875 25.2569 22.6057L23.1527 20.5016C21.4189 18.7647 19.3787 17.3634 17.1351 16.368L15.8035 15.7281C15.5974 15.6183 15.5148 15.3655 15.6161 15.1551C15.7177 14.9448 15.9669 14.8522 16.181 14.9448L17.5008 15.5796C19.8367 16.6175 21.9608 18.0779 23.7663 19.8873L25.8704 21.9915C25.9941 22.1158 26.031 22.3021 25.9641 22.464C25.8974 22.6261 25.7398 22.7321 25.5645 22.7332Z" fill="white"/>
<path d="M20.7784 16.2068C20.6631 16.2068 20.5524 16.1612 20.4708 16.0794L20.0357 15.6443C19.8708 15.4737 19.8732 15.2022 20.041 15.0343C20.2088 14.8667 20.4804 14.8641 20.651 15.0292L21.0861 15.4643C21.2106 15.5886 21.2477 15.7758 21.1804 15.9383C21.1131 16.1008 20.9546 16.2068 20.7784 16.2068Z" fill="white"/>
<path d="M23.824 18.3821C23.7086 18.3821 23.5979 18.3365 23.5163 18.2547L23.0812 17.8196C22.9164 17.649 22.9187 17.3774 23.0865 17.2096C23.2544 17.042 23.5259 17.0394 23.6965 17.2045L24.1316 17.6396C24.2561 17.7639 24.2933 17.9511 24.2259 18.1136C24.1586 18.2761 24.0001 18.3821 23.824 18.3821Z" fill="white"/>
<path d="M22.2635 23.4293C22.1388 23.4293 22.0202 23.3757 21.9376 23.2823L21.3227 22.5861C21.1638 22.4059 21.1808 22.1308 21.3612 21.9716C21.5413 21.8127 21.8165 21.8297 21.9754 22.0101L22.5902 22.7061C22.7035 22.8344 22.7311 23.0171 22.6608 23.1731C22.5906 23.329 22.4353 23.4293 22.2643 23.4293H22.2635Z" fill="white"/>
<path d="M19.9082 20.1226C19.7928 20.1226 19.6822 20.0769 19.6006 19.9951L19.1655 19.56C19.0006 19.3894 19.0029 19.1179 19.1708 18.9501C19.3386 18.7825 19.6101 18.7799 19.7807 18.945L20.2158 19.3801C20.3403 19.5044 20.3775 19.6915 20.3102 19.8541C20.2428 20.0166 20.0843 20.1226 19.9082 20.1226Z" fill="white"/>
<path d="M21.2135 25.7789C21.0429 25.7791 20.8878 25.6795 20.8173 25.5239L20.5562 24.9488C19.4837 22.5849 17.9804 20.4414 16.1229 18.6281C16.0897 18.5958 16.0621 18.5586 16.0407 18.5178L15.1705 16.8424C15.0596 16.6289 15.1428 16.3661 15.3561 16.2554C15.5697 16.1445 15.8325 16.2278 15.9431 16.4411L16.7811 18.0549C18.6927 19.933 20.2411 22.148 21.348 24.5885L21.6091 25.1638C21.6567 25.269 21.6605 25.3888 21.6197 25.497C21.5789 25.6049 21.4969 25.6924 21.3915 25.7398C21.3357 25.7655 21.2751 25.7789 21.2135 25.7789Z" fill="white"/>
<path d="M16.2811 18.5448C16.0049 18.5438 15.736 18.455 15.5137 18.2907L13.1088 16.5431C12.9976 16.4622 12.847 16.4622 12.7359 16.5431L10.3307 18.2907C9.87329 18.6232 9.25377 18.6232 8.79636 18.291C8.33873 17.9587 8.14731 17.3698 8.32174 16.8318L9.24039 14.0036C9.28331 13.8732 9.23678 13.7298 9.12545 13.649L6.72004 11.9018C6.26305 11.5691 6.07184 10.9802 6.24669 10.4427C6.42133 9.90496 6.9223 9.54103 7.48764 9.54081H10.4603C10.5973 9.54145 10.7193 9.45371 10.7618 9.32326L11.6809 6.49507C11.8555 5.95713 12.3567 5.59277 12.9224 5.59277C13.488 5.59277 13.9894 5.95713 14.164 6.49507L15.0825 9.32326C15.1254 9.45371 15.2473 9.54145 15.3844 9.54081H18.357C18.9224 9.54081 19.4235 9.90475 19.5984 10.4425C19.7732 10.98 19.5823 11.5691 19.125 11.9018L16.7203 13.649C16.6085 13.7298 16.562 13.8734 16.6049 14.0041L17.5234 16.8322C17.7048 17.37 17.5123 17.9629 17.0496 18.2912C16.8269 18.4554 16.5577 18.5442 16.2811 18.5448Z" fill="white"/>
</svg>
