<svg width="30" height="30" viewBox="0 0 30 30" fill="none" xmlns="http://www.w3.org/2000/svg">
<circle cx="15" cy="15" r="15" fill="#2E3591"/>
<path d="M24.5419 8.40514C24.4096 8.27676 24.2522 8.17487 24.0788 8.10534C23.9053 8.0358 23.7193 8 23.5315 8C23.3436 8 23.1576 8.0358 22.9842 8.10534C22.8108 8.17487 22.6534 8.27676 22.5211 8.40514L11.919 18.6227L7.46469 14.322C7.32733 14.1943 7.16518 14.0939 6.9875 14.0265C6.80982 13.9591 6.62009 13.9261 6.42914 13.9293C6.23819 13.9324 6.04975 13.9718 5.8746 14.045C5.69945 14.1183 5.54101 14.2241 5.40832 14.3563C5.27563 14.4885 5.1713 14.6445 5.10128 14.8155C5.03125 14.9865 4.99691 15.1691 5.00022 15.3529C5.00352 15.5367 5.0444 15.7181 5.12053 15.8866C5.19666 16.0552 5.30654 16.2077 5.4439 16.3354L10.9086 21.5949C11.0409 21.7232 11.1983 21.8251 11.3717 21.8947C11.5451 21.9642 11.7311 22 11.919 22C12.1069 22 12.2929 21.9642 12.4663 21.8947C12.6397 21.8251 12.7971 21.7232 12.9294 21.5949L24.5419 10.4185C24.6863 10.2903 24.8016 10.1346 24.8804 9.96134C24.9593 9.78808 25 9.60098 25 9.41183C25 9.22268 24.9593 9.03558 24.8804 8.86232C24.8016 8.68906 24.6863 8.5334 24.5419 8.40514Z" fill="white"/>
</svg>
