<svg width="30" height="30" viewBox="0 0 30 30" fill="none" xmlns="http://www.w3.org/2000/svg">
<rect width="30" height="30" rx="5" fill="#F11F12"/>
<path d="M16.74 7.46L16.34 17.04H13.44L13.04 7.46H16.74ZM14.94 22.16C14.34 22.16 13.8467 21.9867 13.46 21.64C13.0867 21.28 12.9 20.84 12.9 20.32C12.9 19.7867 13.0867 19.34 13.46 18.98C13.8467 18.62 14.34 18.44 14.94 18.44C15.5267 18.44 16.0067 18.62 16.38 18.98C16.7667 19.34 16.96 19.7867 16.96 20.32C16.96 20.84 16.7667 21.28 16.38 21.64C16.0067 21.9867 15.5267 22.16 14.94 22.16Z" fill="white"/>
</svg>
