<svg width="30" height="30" viewBox="0 0 30 30" fill="none" xmlns="http://www.w3.org/2000/svg">
<rect width="30" height="30" rx="5" fill="#FED42D"/>
<path d="M6.87439 23.3076C6.87439 23.6544 7.01216 23.987 7.2574 24.2323C7.50264 24.4775 7.83526 24.6153 8.18208 24.6153H21.818C22.1648 24.6153 22.4974 24.4775 22.7427 24.2323C22.9879 23.987 23.1257 23.6544 23.1257 23.3076V12.8743H6.87439V23.3076ZM18.1282 15.6512H20.2488V17.7717H18.1282V15.6512ZM18.1282 19.2563H20.2488V21.3768H18.1282V19.2563ZM13.9411 15.6512H16.059V17.7717H13.9411V15.6512ZM13.9411 19.2563H16.059V21.3768H13.9411V19.2563ZM9.74875 15.6512H11.8693V17.7717H9.74875V15.6512ZM9.74875 19.2563H11.8693V21.3768H9.74875V19.2563Z" fill="white"/>
<path d="M19.1026 9.6717C19.1638 9.6717 19.2225 9.64739 19.2658 9.60411C19.3091 9.56083 19.3334 9.50213 19.3334 9.44093V5.61529C19.3334 5.55409 19.3091 5.49539 19.2658 5.45211C19.2225 5.40883 19.1638 5.38452 19.1026 5.38452C19.0414 5.38452 18.9827 5.40883 18.9394 5.45211C18.8961 5.49539 18.8718 5.55409 18.8718 5.61529V9.44093C18.8718 9.50213 18.8961 9.56083 18.9394 9.60411C18.9827 9.64739 19.0414 9.6717 19.1026 9.6717Z" fill="white"/>
<path d="M21.818 7.41016H19.7872V9.44093C19.7872 9.62522 19.714 9.80196 19.5837 9.93227C19.4534 10.0626 19.2766 10.1358 19.0923 10.1358C18.908 10.1358 18.7313 10.0626 18.601 9.93227C18.4707 9.80196 18.3975 9.62522 18.3975 9.44093V7.41016H11.6V9.44093C11.6058 9.53556 11.5921 9.63036 11.5599 9.71951C11.5276 9.80866 11.4775 9.89027 11.4125 9.95931C11.3475 10.0284 11.2691 10.0834 11.1821 10.121C11.095 10.1586 11.0012 10.178 10.9064 10.178C10.8116 10.178 10.7178 10.1586 10.6308 10.121C10.5438 10.0834 10.4654 10.0284 10.4004 9.95931C10.3354 9.89027 10.2853 9.80866 10.253 9.71951C10.2208 9.63036 10.2071 9.53556 10.2129 9.44093V7.41016H8.18208C7.83547 7.41083 7.50325 7.54883 7.25815 7.79392C7.01306 8.03901 6.87507 8.37124 6.87439 8.71785V12.4127H23.1257V8.71785C23.125 8.37124 22.987 8.03901 22.7419 7.79392C22.4968 7.54883 22.1646 7.41083 21.818 7.41016Z" fill="white"/>
<path d="M10.8975 9.67181C10.928 9.67215 10.9583 9.66643 10.9866 9.65499C11.0149 9.64354 11.0407 9.6266 11.0624 9.60514C11.0841 9.58367 11.1013 9.55812 11.113 9.52995C11.1248 9.50179 11.1308 9.47157 11.1308 9.44104V5.6154C11.1248 5.55806 11.0978 5.50499 11.0549 5.46641C11.0121 5.42784 10.9565 5.40649 10.8988 5.40649C10.8411 5.40649 10.7855 5.42784 10.7427 5.46641C10.6998 5.50499 10.6728 5.55806 10.6667 5.6154V9.44104C10.6667 9.50225 10.6911 9.56095 10.7343 9.60422C10.7776 9.6475 10.8363 9.67181 10.8975 9.67181Z" fill="white"/>
</svg>
